<?xml version="1.0" standalone="no"?>
<!DOCTYPE svg PUBLIC "-//W3C//DTD SVG 20010904//EN"
 "http://www.w3.org/TR/2001/REC-SVG-20010904/DTD/svg10.dtd">
<svg version="1.0" xmlns="http://www.w3.org/2000/svg"
 width="500.000000pt" height="500.000000pt" viewBox="0 0 500.000000 500.000000"
 preserveAspectRatio="xMidYMid meet">

<g transform="translate(0.000000,500.000000) scale(0.100000,-0.100000)"
fill="#000000" stroke="none">
<path d="M1915 3838 c-32 -17 -76 -61 -91 -90 -10 -19 -14 -65 -14 -162 l0
-135 -32 -17 c-18 -9 -52 -32 -75 -51 l-43 -34 0 -400 c0 -222 4 -399 9 -399
5 0 14 7 21 14 13 16 103 76 113 76 4 0 7 -157 7 -349 l0 -349 31 -31 31 -31
474 0 c306 0 482 4 495 10 14 8 29 5 60 -11 36 -18 55 -20 139 -17 85 3 101 6
137 30 78 51 135 167 153 310 14 114 13 370 -2 403 -13 30 -43 39 -103 33 -34
-4 -46 -1 -60 15 -15 17 -26 19 -75 14 -46 -4 -60 -2 -64 10 -3 8 -6 146 -7
306 -1 441 -13 788 -27 814 -29 53 -32 53 -564 53 -340 -1 -499 -4 -513 -12z
m1041 -41 c24 -28 24 -31 24 -222 l0 -195 -45 32 -45 32 0 118 c0 123 -11 169
-45 198 -15 13 -90 16 -489 20 l-471 5 35 23 35 22 488 -2 489 -3 24 -28z
m-122 -66 c25 -24 26 -28 26 -152 l0 -128 -42 15 c-138 48 -321 16 -441 -78
-36 -29 -39 -29 -60 -14 -101 74 -172 103 -276 112 -57 6 -153 -6 -198 -23
-18 -7 -18 205 -1 243 24 53 35 54 520 51 l446 -2 26 -24z m-721 -276 c72 -19
144 -55 185 -93 l32 -30 0 -371 c0 -204 -3 -371 -6 -371 -3 0 -20 11 -37 24
-86 64 -225 102 -327 90 -86 -10 -171 -40 -225 -79 l-50 -35 -3 372 c-3 416
-8 385 73 436 100 64 244 87 358 57z m670 0 c68 -18 128 -47 180 -87 l37 -30
0 -316 0 -317 -55 -1 c-55 -2 -55 -1 -55 28 0 25 3 29 20 25 11 -3 20 -1 20 4
0 4 -9 13 -20 19 -15 8 -20 21 -20 51 0 36 2 40 20 34 25 -8 27 10 3 24 -10 5
-27 27 -38 48 -18 34 -25 38 -64 41 -27 2 -49 -2 -60 -11 -9 -9 -48 -17 -96
-20 -88 -5 -216 -44 -223 -66 -4 -11 0 -12 14 -6 67 29 134 46 200 52 l75 6
-3 -44 -3 -44 -70 -6 c-78 -7 -146 -24 -187 -45 -54 -28 -27 -33 40 -8 40 16
98 28 145 31 l77 6 0 -55 0 -55 -71 -7 c-98 -10 -185 -39 -244 -81 l-50 -35
-3 372 c-3 416 -8 385 73 436 100 64 244 87 358 57z m69 -517 c9 -17 14 -93
16 -270 2 -140 8 -248 13 -248 5 0 9 50 9 111 0 136 6 149 65 149 59 0 65 -13
65 -154 0 -71 4 -116 10 -116 6 0 10 41 10 104 0 82 3 108 16 120 21 21 77 20
97 -1 18 -21 17 -11 17 -123 0 -53 4 -90 10 -90 6 0 10 34 10 81 0 102 9 119
60 119 31 0 43 -5 56 -25 15 -23 16 -49 11 -213 -8 -261 -28 -340 -109 -428
-55 -60 -90 -74 -184 -74 -148 0 -184 35 -321 310 -56 113 -117 226 -137 252
-20 26 -36 53 -36 62 0 73 77 59 157 -27 23 -25 44 -42 47 -39 3 3 6 113 6
244 0 146 4 247 10 259 16 29 85 27 102 -3z m-696 -281 c64 -24 102 -45 143
-82 38 -34 38 -35 56 -15 51 56 189 117 275 120 98 4 90 12 90 -95 0 -52 -4
-95 -8 -95 -5 0 -19 11 -31 24 -13 14 -38 32 -56 40 -102 49 -152 -26 -81
-123 35 -48 96 -153 96 -164 0 -4 -182 -7 -405 -7 l-405 0 0 195 0 195 28 12
c69 27 215 25 298 -5z m523 -459 c13 -23 36 -73 52 -111 16 -38 45 -92 65
-120 28 -39 33 -52 22 -58 -7 -5 -219 -9 -470 -9 l-457 0 -28 24 c-28 24 -28
24 -31 170 l-3 146 413 0 413 0 24 -42z"/>
<path d="M1920 3383 c-69 -11 -170 -51 -170 -66 0 -5 8 -6 18 -2 173 67 304
70 424 9 50 -25 68 -29 68 -15 0 11 -104 57 -160 70 -44 10 -131 12 -180 4z"/>
<path d="M1862 3265 c-69 -19 -123 -48 -100 -53 9 -2 29 3 45 11 50 26 138 40
225 35 67 -3 97 -10 151 -35 38 -18 69 -28 73 -22 3 5 -25 24 -63 41 -61 29
-79 33 -173 35 -69 2 -123 -2 -158 -12z"/>
<path d="M1913 3169 c-63 -11 -163 -47 -163 -60 0 -13 8 -12 69 11 123 47 276
43 379 -9 45 -23 62 -26 62 -12 0 13 -117 60 -179 71 -61 11 -95 11 -168 -1z"/>
<path d="M1873 3055 c-76 -21 -125 -43 -119 -54 4 -6 24 -2 49 9 63 28 159 43
235 38 58 -4 108 -20 210 -65 6 -3 12 0 12 6 0 14 -61 45 -129 65 -66 19 -187
20 -258 1z"/>
<path d="M1913 2960 c-64 -12 -163 -48 -163 -61 0 -13 8 -12 69 11 123 47 276
43 381 -10 48 -24 77 -22 39 4 -75 48 -223 74 -326 56z"/>
<path d="M1920 2853 c-69 -11 -170 -51 -170 -66 0 -5 8 -6 18 -2 174 67 291
70 428 9 61 -27 64 -28 64 -15 0 11 -104 57 -160 70 -44 10 -131 12 -180 4z"/>
<path d="M2547 3355 c-64 -16 -117 -41 -117 -55 0 -5 30 2 68 16 125 48 264
43 375 -13 50 -25 78 -23 43 3 -75 54 -253 78 -369 49z"/>
<path d="M2620 3263 c-91 -14 -190 -48 -190 -65 0 -11 2 -11 61 12 119 47 274
43 377 -9 44 -23 62 -26 62 -12 0 12 -107 57 -168 70 -52 11 -93 12 -142 4z"/>
<path d="M2543 3140 c-40 -10 -81 -24 -93 -30 -25 -13 -27 -35 -2 -25 157 68
307 69 434 4 43 -22 48 -23 48 -8 0 5 -21 20 -47 31 -117 52 -218 60 -340 28z"/>
<path d="M2550 3039 c-67 -19 -120 -41 -120 -50 0 -12 0 -12 84 16 119 40 260
32 368 -20 21 -10 41 -15 45 -11 10 9 -9 21 -77 48 -62 24 -239 35 -300 17z"/>
<path d="M2294 2158 c-38 -18 -55 -79 -34 -119 15 -27 65 -51 94 -43 68 17 93
107 41 151 -28 24 -66 28 -101 11z m88 -35 c24 -21 23 -58 -2 -83 -54 -54
-126 12 -90 81 13 24 66 26 92 2z"/>
<path d="M2253 1762 c-12 -2 -34 -17 -48 -33 -32 -39 -35 -127 -6 -176 40 -65
148 -53 174 20 9 25 -35 23 -51 -3 -17 -28 -66 -27 -86 2 -19 27 -21 93 -3
128 17 34 77 36 92 3 13 -29 56 -32 48 -4 -11 43 -66 71 -120 63z"/>
<path d="M2706 1759 c-40 -11 -56 -28 -56 -60 0 -35 24 -57 82 -79 30 -11 44
-22 46 -37 6 -44 -66 -54 -88 -12 -13 22 -50 26 -50 4 0 -8 9 -24 20 -35 61
-61 183 -21 164 54 -7 28 -25 41 -89 66 -43 17 -53 44 -24 63 21 13 69 1 69
-18 0 -9 10 -15 25 -15 30 0 31 9 5 42 -21 28 -61 38 -104 27z"/>
<path d="M2420 1635 c0 -117 1 -125 19 -125 17 0 20 8 23 48 3 39 6 47 25 50
16 2 27 -8 49 -47 21 -39 33 -51 51 -51 l23 0 -25 50 -26 51 21 26 c28 36 26
77 -6 102 -21 16 -41 21 -90 21 l-64 0 0 -125z m124 79 c34 -33 4 -77 -48 -72
-26 2 -32 8 -34 31 -2 16 -1 35 2 43 7 19 61 18 80 -2z"/>
</g>
</svg>
